<svg width="485" height="138" viewBox="0 0 485 138" fill="none" xmlns="http://www.w3.org/2000/svg">
<g clip-path="url(#clip0_2_53)">
<mask id="mask0_2_53" style="mask-type:luminance" maskUnits="userSpaceOnUse" x="0" y="0" width="485" height="138">
<path d="M485 0H0V138H485V0Z" fill="white"/>
</mask>
<g mask="url(#mask0_2_53)">
<path d="M184.671 104.659V33.1199H200.083V104.659H184.671Z" fill="#3673F5"/>
<path d="M220.82 104.659V33.1199H236.936L277.532 80.8128V33.1199H293.346V104.659H277.229L236.433 56.7679V104.659H220.82Z" fill="#3673F5"/>
<path d="M331.628 104.659C328.874 104.659 326.356 103.997 324.073 102.672C321.856 101.347 320.077 99.5919 318.733 97.4057C317.39 95.1536 316.719 92.6696 316.719 89.9537V47.8252C316.719 45.1094 317.39 42.6585 318.733 40.4726C320.077 38.2204 321.856 36.4319 324.073 35.1071C326.356 33.7823 328.874 33.1199 331.628 33.1199H389.045V48.6201H335.657C334.582 48.6201 333.743 48.8851 333.139 49.415C332.6 49.9449 332.332 50.7729 332.332 51.899V85.88C332.332 86.94 332.6 87.768 333.139 88.364C333.743 88.8937 334.582 89.1591 335.657 89.1591H389.045V104.659H331.628Z" fill="#3673F5"/>
<path d="M426.341 104.659C423.654 104.659 421.169 103.997 418.886 102.672C416.603 101.347 414.79 99.5585 413.447 97.3064C412.103 95.0544 411.434 92.6033 411.434 89.9537V47.8252C411.434 45.1094 412.103 42.6585 413.447 40.4726C414.79 38.2204 416.603 36.4319 418.886 35.1071C421.169 33.7823 423.654 33.1199 426.341 33.1199H469.051C471.737 33.1199 474.188 33.7823 476.405 35.1071C478.688 36.4319 480.5 38.2204 481.843 40.4726C483.253 42.6585 483.958 45.1094 483.958 47.8252V89.9537C483.958 92.6033 483.253 95.0544 481.843 97.3064C480.5 99.5585 478.688 101.347 476.405 102.672C474.188 103.997 471.737 104.659 469.051 104.659H426.341ZM427.045 89.1591H468.144V48.6201H427.045V89.1591Z" fill="#3673F5"/>
<path d="M0 22.08C0 9.88558 10.022 0 22.3846 0H117.519C129.882 0 139.904 9.88558 139.904 22.08V115.92C139.904 128.114 129.882 138 117.519 138H22.3846C10.022 138 0 128.114 0 115.92V22.08Z" fill="#3673F5"/>
<path d="M26.5781 95.22L40.6804 42.78H55.9578L41.8556 95.22H26.5781Z" fill="white"/>
<path d="M55.9578 95.22L70.0601 42.78H85.3376L71.2353 95.22H55.9578Z" fill="white"/>
<path d="M85.3376 95.22L99.4399 42.78H114.717L100.615 95.22H85.3376Z" fill="white"/>
</g>
</g>
<defs>
<clipPath id="clip0_2_53">
<rect width="485" height="138" fill="white"/>
</clipPath>
</defs>
</svg>
